HIERARCHY
ROOT Hips
{
 OFFSET 0.000000 0.000000 0.000000
 CHANNELS 6 Xposition Yposition Zposition Yrotation Xrotation Zrotation
 JOINT Chest
 {
  OFFSET 0.000000 9.581000 -0.001100
  CHANNELS 3 Yrotation Xrotation Zrotation
  JOINT Chest2
  {
   OFFSET 0.000000 9.561100 0.002200
   CHANNELS 3 Yrotation Xrotation Zrotation
   JOINT Chest3
   {
    OFFSET 0.000000 9.521100 0.000000
    CHANNELS 3 Yrotation Xrotation Zrotation
    JOINT Chest4
    {
     OFFSET 0.000000 9.511400 0.000000
     CHANNELS 3 Yrotation Xrotation Zrotation
     JOINT Neck
     {
      OFFSET 0.000000 14.375100 0.000000
      CHANNELS 3 Yrotation Xrotation Zrotation
      JOINT Head
      {
       OFFSET 0.000000 8.901200 0.004600
       CHANNELS 3 Yrotation Xrotation Zrotation
       End Site
       {
        OFFSET 0.000000 16.962200 0.002400
       }
      }
     }
     JOINT RightCollar
     {
      OFFSET -2.920100 9.518800 0.000000
      CHANNELS 3 Yrotation Xrotation Zrotation
      JOINT RightShoulder
      {
       OFFSET -13.664500 0.000000 0.000000
       CHANNELS 3 Yrotation Xrotation Zrotation
       JOINT RightElbow
       {
        OFFSET 0.000000 -29.999200 0.000000
        CHANNELS 3 Yrotation Xrotation Zrotation
        JOINT RightWrist
        {
         OFFSET 0.000000 -24.253600 0.000000
         CHANNELS 3 Yrotation Xrotation Zrotation
         End Site
         {
          OFFSET 0.000000 -17.918900 0.000000
         }
        }
       }
      }
     }
     JOINT LeftCollar
     {
      OFFSET 2.920100 9.518800 0.000000
      CHANNELS 3 Yrotation Xrotation Zrotation
      JOINT LeftShoulder
      {
       OFFSET 13.664500 0.000000 0.000000
       CHANNELS 3 Yrotation Xrotation Zrotation
       JOINT LeftElbow
       {
        OFFSET 0.000000 -29.999200 0.000000
        CHANNELS 3 Yrotation Xrotation Zrotation
        JOINT LeftWrist
        {
         OFFSET 0.000000 -24.253600 0.000000
         CHANNELS 3 Yrotation Xrotation Zrotation
         End Site
         {
          OFFSET 0.000000 -17.918900 0.000000
         }
        }
       }
      }
     }
    }
   }
  }
 }
 JOINT RightHip
 {
  OFFSET -7.797300 0.005300 0.000500
  CHANNELS 3 Yrotation Xrotation Zrotation
  JOINT RightKnee
  {
   OFFSET 0.000000 -40.663400 -0.000500
   CHANNELS 3 Yrotation Xrotation Zrotation
   JOINT RightAnkle
   {
    OFFSET 0.000000 -39.523700 -0.000900
    CHANNELS 3 Yrotation Xrotation Zrotation
    JOINT RightToe
    {
     OFFSET 0.000000 -6.418000 14.485300
     CHANNELS 3 Yrotation Xrotation Zrotation
     End Site
     {
      OFFSET 0.000000 -1.465200 6.326400
     }
    }
   }
  }
 }
 JOINT LeftHip
 {
  OFFSET 7.797300 0.005300 0.000500
  CHANNELS 3 Yrotation Xrotation Zrotation
  JOINT LeftKnee
  {
   OFFSET 0.000000 -40.663400 -0.000500
   CHANNELS 3 Yrotation Xrotation Zrotation
   JOINT LeftAnkle
   {
    OFFSET 0.000000 -39.523700 -0.000900
    CHANNELS 3 Yrotation Xrotation Zrotation
    JOINT LeftToe
    {
     OFFSET 0.000000 -6.418000 14.485300
     CHANNELS 3 Yrotation Xrotation Zrotation
     End Site
     {
      OFFSET 0.000000 -1.465200 6.326400
     }
    }
   }
  }
 }
}
MOTION
Frames: 5
Frame Time: 0.008333
-15.392909 126.904390 10.594589 176.894657 -47.733904 -4.264595 6.632108 25.976646 5.030507 0.934121 4.489711 0.614316 1.538242 7.116006 1.037007 5.159546 21.269607 3.806139 -1.071464 17.099103 -1.784041 -0.720957 -7.749479 -1.630936 0.900049 3.577487 0.691216 -0.912755 -9.292299 -7.838826 -120.055746 -71.197586 162.266259 7.581805 4.123054 -13.041561 -8.907372 -0.582943 -0.963090 -6.119787 -11.035051 12.438503 59.227039 -61.767487 -105.535974 -1.494625 -13.556811 23.569513 3.640218 -26.094605 9.021420 -14.874687 74.002712 -19.150610 12.558943 -7.704281 9.809745 0.005237 -0.002583 0.002320 11.036731 -7.260883 11.444822 145.181498 69.869648 162.515524 -5.519292 -15.351475 -9.433677 -0.003325 -0.000672 -0.001473
-15.392364 126.904616 10.594788 176.903534 -47.735801 -4.261501 6.625652 25.980255 5.025235 0.962209 4.494182 0.636688 1.521881 7.115275 1.026478 5.166085 21.270412 3.809374 -1.065454 17.086713 -1.766841 -0.702158 -7.769490 -1.603531 0.894482 3.534689 0.707564 -0.844585 -9.262115 -7.903544 -119.794078 -71.175456 162.051637 7.520386 4.085164 -13.052951 -8.914852 -0.623910 -0.949006 -6.168202 -11.012398 12.511350 59.271169 -61.698113 -105.580105 -1.477575 -13.554319 23.407433 3.636780 -26.091718 9.006834 -14.871843 74.003414 -19.152066 12.597451 -7.714462 9.810733 0.012567 -0.001323 0.005568 11.031652 -7.257234 11.434424 145.192062 69.869457 162.525488 -5.507046 -15.350175 -9.448216 -0.001489 0.000285 -0.000660
-15.394511 126.904346 10.595009 176.912495 -47.734274 -4.243930 6.620789 25.981567 5.013846 0.968528 4.496221 0.637818 1.506512 7.113654 1.019717 5.191481 21.273724 3.820383 -1.083180 17.078339 -1.761734 -0.672865 -7.797100 -1.562452 0.902470 3.470310 0.739104 -0.819003 -9.210630 -7.969943 -119.533820 -71.160334 161.855567 7.467770 4.062907 -13.048481 -8.924699 -0.662292 -0.931889 -6.204851 -10.991402 12.583014 59.311192 -61.629783 -105.631487 -1.459870 -13.524409 23.225852 3.634329 -26.091594 8.987270 -14.901528 74.006472 -19.184747 12.526957 -7.715468 9.818803 0.001438 -0.000640 0.000637 11.029344 -7.255121 11.408761 145.185970 69.869363 162.521571 -5.539766 -15.353920 -9.409900 -0.002307 0.001027 -0.001022
-15.393953 126.904184 10.595526 176.917169 -47.732498 -4.241199 6.653395 25.981164 5.042267 0.950460 4.495375 0.628193 1.511526 7.115197 1.024017 5.196301 21.274538 3.823344 -1.075938 17.060967 -1.733043 -0.674623 -7.816790 -1.532148 0.888964 3.439668 0.750928 -0.815460 -9.189064 -7.993523 -119.291717 -71.157008 161.706172 7.423647 4.050273 -13.026890 -8.945675 -0.684073 -0.922614 -6.202975 -10.998350 12.733743 59.284207 -61.522338 -105.682796 -1.431724 -13.518419 23.044062 3.626088 -26.093554 8.980270 -14.891965 74.009162 -19.180855 12.516243 -7.721221 9.824153 -0.000728 -0.001495 -0.000322 11.029481 -7.259985 11.400016 145.191043 69.868472 162.532585 -5.542913 -15.350147 -9.402180 -0.001502 -0.000538 -0.000665
-15.392949 126.904369 10.595776 176.917308 -47.733369 -4.239366 6.666704 25.981449 5.051588 0.949929 4.496609 0.628651 1.519424 7.117859 1.027955 5.197515 21.273802 3.825801 -1.061109 17.045064 -1.703445 -0.688803 -7.829093 -1.511747 0.880498 3.411317 0.761369 -0.772274 -9.176906 -8.054713 -119.020563 -71.134738 161.476204 7.388692 4.042112 -12.987080 -8.960353 -0.703817 -0.912941 -6.187097 -11.001021 12.836396 59.251893 -61.438897 -105.716144 -1.412681 -13.464854 22.835056 3.614366 -26.093217 8.971984 -14.857284 74.011867 -19.154718 12.550940 -7.729323 9.824976 0.003123 -0.002811 0.001384 11.029854 -7.260001 11.397079 145.201180 69.873089 162.543312 -5.532555 -15.342913 -9.405285 -0.000736 -0.001155 -0.000326
